# xmcd CD database file
#
# Track frame offsets:
#	150
#	14167
#	30540
#	40622
#	54062
#	68060
#	80562
#	94905
#	105405
#	120285
#
# Disc length: 1754 seconds
#
# Revision: 3
# Processed by: cddbd v1.4PL0 Copyright (c) Steve Scherf et al.
# Submitted via: CDex 1.40Release
#
DISCID=6f06d80a
DTITLE=Alan Jackson - Here In The Real World
DYEAR=1989
DGENRE=Country
TTITLE0=Ace of Hearts
TTITLE1=Here In The Real World
TTITLE2=Blue Blooded Woman
TTITLE3=Wanted
TTITLE4=Chasin' That Neon Rainbow
TTITLE5=She Don't Get The Blues
TTITLE6=I'd Love You All Over Again
TTITLE7=Dog River Blues
TTITLE8=Home
TTITLE9=Short Sweet Ride
EXTD=YEAR: 1989 ID3G: 2
EXTT0=
EXTT1=
EXTT2=
EXTT3=
EXTT4=
EXTT5=
EXTT6=
EXTT7=
EXTT8=
EXTT9=
PLAYORDER=
